<?xml version="1.0" encoding="UTF-8" standalone="no"?>
<!-- Created with Inkscape (http://www.inkscape.org/) -->

<svg
   xmlns:dc="http://purl.org/dc/elements/1.1/"
   xmlns:cc="http://creativecommons.org/ns#"
   xmlns:rdf="http://www.w3.org/1999/02/22-rdf-syntax-ns#"
   xmlns:svg="http://www.w3.org/2000/svg"
   xmlns="http://www.w3.org/2000/svg"
   xmlns:sodipodi="http://sodipodi.sourceforge.net/DTD/sodipodi-0.dtd"
   xmlns:inkscape="http://www.inkscape.org/namespaces/inkscape"
   version="1.1"
   id="svg2"
   width="42.666668"
   height="42.666668"
   viewBox="0 0 42.666668 42.666668"
   sodipodi:docname="app.svg"
   inkscape:version="0.92.5 (2060ec1f9f, 2020-04-08)">
  <metadata
     id="metadata8">
    <rdf:RDF>
      <cc:Work
         rdf:about="">
        <dc:format>image/svg+xml</dc:format>
        <dc:type
           rdf:resource="http://purl.org/dc/dcmitype/StillImage" />
        <dc:title></dc:title>
      </cc:Work>
    </rdf:RDF>
  </metadata>
  <defs
     id="defs6" />
  <sodipodi:namedview
     pagecolor="#ffffff"
     bordercolor="#666666"
     borderopacity="1"
     objecttolerance="10"
     gridtolerance="10"
     guidetolerance="10"
     inkscape:pageopacity="0"
     inkscape:pageshadow="2"
     inkscape:window-width="1920"
     inkscape:window-height="1051"
     id="namedview4"
     showgrid="false"
     inkscape:zoom="8"
     inkscape:cx="38.627491"
     inkscape:cy="36.973033"
     inkscape:window-x="0"
     inkscape:window-y="-37"
     inkscape:window-maximized="1"
     inkscape:current-layer="svg2" />
  <path
     style="fill:#ffffff;stroke-width:0.07048636;fill-opacity:1"
     d="M 5.9319504,34.140099 C 4.2681449,33.975973 2.9997932,33.388662 1.9715862,32.306228 1.3564163,31.658614 1.0903518,31.273523 0.75310334,30.542648 -0.2557898,28.356203 0.09876275,25.99875 1.6907804,24.307916 c 0.8202176,-0.871127 1.8587623,-1.442548 3.1838747,-1.75181 0.749915,-0.17502 2.7691477,-0.175933 3.5595596,-0.0016 0.2907562,0.06413 0.5524377,0.116624 0.5815124,0.116641 0.02908,3.1e-5 0.053288,-0.198186 0.053795,-0.440483 4.94e-4,-0.242296 0.060139,-0.72601 0.1325087,-1.074917 0.2536377,-1.22277 0.7817102,-2.221638 1.6224022,-3.068826 0.997608,-1.005313 2.066933,-1.47321 3.500025,-1.531481 0.985038,-0.04006 1.700915,0.07589 2.549083,0.412809 0.291664,0.115862 0.544466,0.196489 0.561782,0.179173 0.01732,-0.01732 0.07804,-0.256418 0.134945,-0.531342 0.816118,-3.943129 4.086133,-7.0163192 8.266508,-7.7689409 1.16724,-0.2101463 2.948522,-0.1613686 4.024861,0.1101956 3.845684,0.9703263 6.452992,4.0380983 7.361745,8.6618633 l 0.154044,0.78374 -1.955228,2.159098 -1.955232,2.159098 -1.031137,2.95308 -1.031137,2.953078 -0.330766,0.304327 c -0.474488,0.436562 -1.408699,1.045457 -1.927359,1.256207 -0.578165,0.23493 -1.000812,0.206061 -1.658159,-0.113257 -0.421629,-0.204814 -0.681211,-0.435822 -2.102213,-1.870814 -1.481631,-1.496216 -1.666693,-1.659057 -2.149833,-1.891689 -1.11109,-0.534993 -2.106496,-0.459235 -3.151915,0.239888 -0.185438,0.124016 -1.019115,0.918224 -1.852617,1.76492 -1.365164,1.386774 -1.563975,1.561921 -2.004689,1.766084 -0.678818,0.314463 -1.107704,0.340743 -1.636394,0.100265 C 14.256562,30.031203 13.979421,29.792376 13.12157,28.917101 12.540058,28.323777 11.919617,27.740913 11.742813,27.621848 10.749072,26.95263 9.7342703,27.061091 8.5715413,27.960794 8.00183,28.401625 6.883528,29.523789 6.883528,29.654636 c 0,0.130513 0.2154582,0.347126 0.3452653,0.347126 0.048111,0 0.4103743,-0.31021 0.8050432,-0.689354 0.7828722,-0.752081 1.1884202,-1.057235 1.7566142,-1.321765 0.8747283,-0.407241 1.3033353,-0.201962 2.8729593,1.37599 0.904092,0.908889 1.252627,1.211922 1.565485,1.361109 1.038144,0.495036 2.145047,0.239142 3.29278,-0.761222 0.222392,-0.193839 0.845027,-0.825665 1.383632,-1.404058 1.446877,-1.553764 2.08841,-1.971306 3.015391,-1.962575 0.329172,0.003 0.522684,0.05748 0.952489,0.26768 0.49223,0.240725 0.678058,0.403856 2.125333,1.865732 1.670044,1.686892 1.969137,1.918512 2.778927,2.152021 1.037435,0.299152 2.096931,-0.102313 3.62409,-1.373221 0.341454,-0.284162 1.01022,-0.627174 3.466428,-1.777946 l 3.043351,-1.425856 1.868625,-2.06526 c 1.027742,-1.135894 1.892662,-2.06526 1.922041,-2.06526 0.07729,0 0.449195,0.859006 0.656831,1.517124 0.270459,0.857252 0.355877,1.606198 0.312342,2.738615 -0.07738,2.012561 -0.785544,3.68212 -2.189972,5.163008 -0.99693,1.051204 -1.96393,1.688847 -3.233904,2.132451 -1.304706,0.455735 -0.346272,0.429286 -16.266481,0.448889 -7.96672,0.0098 -14.7386964,-0.0073 -15.0488358,-0.03779 z M 33.664352,26.718137 c -0.443638,-0.400149 -0.81534,-0.768661 -0.826003,-0.818917 -0.01066,-0.05026 0.18336,-0.662313 0.431165,-1.360128 0.403034,-1.134942 0.468269,-1.270835 0.618523,-1.288486 0.09238,-0.01083 0.237849,-0.03487 0.323262,-0.05337 0.09049,-0.01961 0.967931,-0.930653 2.102457,-2.182966 1.070942,-1.182125 1.974923,-2.149319 2.008846,-2.149319 0.115592,0 0.424461,0.165091 0.404949,0.21645 -0.01066,0.02815 -0.828278,0.94544 -1.816849,2.038414 -0.988571,1.092975 -1.835492,2.05569 -1.882046,2.139365 -0.04655,0.08367 -0.104817,0.281271 -0.129464,0.439098 -0.192489,1.232437 1.221208,1.954171 2.14807,1.096652 0.152082,-0.140714 0.902227,-0.953643 1.666984,-1.806527 0.764756,-0.852886 1.533818,-1.705986 1.709023,-1.895778 l 0.318553,-0.345077 0.168694,0.196112 0.168694,0.196112 -0.240737,0.254695 c -0.132407,0.140087 -0.948475,1.047666 -1.813487,2.016854 -0.865011,0.969186 -1.654183,1.850676 -1.753718,1.958864 -0.125505,0.136416 -0.192289,0.304208 -0.217899,0.54743 l -0.03693,0.350724 -1.057295,0.49747 c -0.581513,0.273608 -1.154242,0.538512 -1.272732,0.588675 -0.214352,0.09074 -0.219499,0.08754 -1.022052,-0.636338 z"
     id="path817"
     inkscape:connector-curvature="0" />
</svg>
